<svg xmlns="http://www.w3.org/2000/svg" viewBox="0 0 1400 900" role="img" aria-label="島の人と食卓を囲む様子を想定した仮ビジュアル">
  <rect width="1400" height="900" fill="#EEE9E2"/>
  <rect x="145" y="220" width="1110" height="470" fill="#F2EFE7"/>
  <ellipse cx="700" cy="495" rx="390" ry="150" fill="#D8D2C5"/>
  <g fill="#22211E" opacity=".9">
    <circle cx="360" cy="360" r="46"/>
    <path d="M285 455c0-70 34-116 75-116s75 46 75 116v70H285Z"/>
    <circle cx="1040" cy="360" r="46"/>
    <path d="M965 455c0-70 34-116 75-116s75 46 75 116v70H965Z"/>
  </g>
  <g fill="#D7C43B">
    <circle cx="620" cy="490" r="34"/>
    <circle cx="700" cy="470" r="30"/>
    <circle cx="780" cy="500" r="32"/>
  </g>
  <path d="M0 730c300-70 560-70 780 0 190 60 380 56 620-24v194H0Z" fill="#6F8991" opacity=".25"/>
</svg>
