<svg xmlns="http://www.w3.org/2000/svg" viewBox="0 0 1400 900" role="img" aria-label="レモンを手入れする人を想定した仮ビジュアル">
  <rect width="1400" height="900" fill="#A8BABD"/>
  <circle cx="1070" cy="170" r="94" fill="#D7C43B" opacity=".82"/>
  <path d="M0 485c260-96 492-96 694 0 208 100 420 96 706-46v461H0Z" fill="#F2EFE7"/>
  <path d="M0 598c280-72 565-74 850-6 185 44 360 42 550-22v330H0Z" fill="#6F8991" opacity=".35"/>
  <g stroke="#5A4635" stroke-width="24" stroke-linecap="round" fill="none" opacity=".85">
    <path d="M120 785c125-150 250-250 375-300"/>
    <path d="M478 820c120-170 270-292 450-365"/>
    <path d="M865 842c98-142 230-245 395-310"/>
  </g>
  <g fill="#D7C43B">
    <circle cx="360" cy="610" r="34"/>
    <circle cx="640" cy="635" r="30"/>
    <circle cx="930" cy="600" r="36"/>
  </g>
  <g fill="#22211E">
    <circle cx="680" cy="510" r="48"/>
    <path d="M590 610c0-76 40-128 90-128s90 52 90 128v150H590Z"/>
  </g>
</svg>
