<svg xmlns="http://www.w3.org/2000/svg" viewBox="0 0 760 560" role="img" aria-labelledby="title desc">
  <title id="title">松山市と中島の位置関係</title>
  <desc id="desc">四国北西部の松山市から瀬戸内海の忽那諸島へ向かい、その中央にある中島を示した線画地図</desc>
  <g fill="none" stroke="#35332e" stroke-linecap="round" stroke-linejoin="round">
    <path stroke-width="2" d="M40 364c28-8 51-2 74-18 26-18 46-20 77-14 30 6 56-7 80 5 22 11 30 35 50 46 21 12 48 10 67 29 18 18 17 48 32 66 13 16 36 22 51 37H40Z"/>
    <path stroke-width="1.5" d="M497 445c-27 1-44 8-62 22-8 6-18 13-26 18"/>
    <path stroke-width="1.5" stroke-dasharray="4 9" d="M463 410C420 359 365 313 306 273"/>
    <path stroke-width="1.5" d="M480 422c-5-2-9 3-7 8 2 6 9 7 14 3 4-4 0-9-7-11Z"/>

    <g stroke-width="1.8">
      <path d="M313 266c-13-17-31-20-44-9-10 8-8 20-18 26-12 8-24 4-29 17-5 14 8 22 21 21 13 0 22-8 36-7 16 1 34-6 40-20 4-10 2-19-6-28Z"/>
      <path d="M391 281c-7-13-19-20-31-15-12 5-10 16-18 23-7 7-16 5-20 14-5 11 6 17 16 17 12 0 22-6 34-5 13 1 28-8 27-21 0-5-3-9-8-13Z"/>
      <path d="M460 302c-9-8-21-10-30-3-6 5-6 13-13 17-9 5-18 4-20 13-3 10 7 15 17 14 9-1 16-6 26-5 11 1 25-5 27-15 2-8-1-15-7-21Z"/>
      <path d="M183 251c-7-10-19-12-28-7-8 5-7 14-14 18-8 4-15 2-20 10-5 9 4 16 13 17 10 1 18-4 28-2 12 2 25-5 27-16 1-8-1-14-6-20Z"/>
      <path d="M115 221c-8-8-20-8-27-1-6 6-4 13-10 18-8 6-17 5-19 14-2 9 7 14 16 12 9-1 15-7 24-7 11 0 23-7 23-18 0-7-2-13-7-18Z"/>
      <path d="M62 177c-7-6-17-5-23 1-5 6-2 12-8 17-6 5-13 5-14 13-1 8 8 11 15 9 8-2 12-7 21-8 9-1 19-8 18-17-1-6-4-11-9-15Z"/>
    </g>
  </g>

  <path fill="#a36b3e" d="M250 157c-13 4-18 17-31 22-14 6-30-2-42 8-11 9-5 23-13 33-8 11-25 14-28 29-3 15 10 26 25 25 14-1 23-11 36-13 15-3 27 7 42 0 13-6 14-20 25-29 11-10 29-11 33-27 4-17-8-29-21-38-8-6-16-12-26-10Z"/>
  <path fill="none" stroke="#35332e" stroke-width="2" stroke-linecap="round" stroke-linejoin="round" d="M250 157c-13 4-18 17-31 22-14 6-30-2-42 8-11 9-5 23-13 33-8 11-25 14-28 29-3 15 10 26 25 25 14-1 23-11 36-13 15-3 27 7 42 0 13-6 14-20 25-29 11-10 29-11 33-27 4-17-8-29-21-38-8-6-16-12-26-10Z"/>

  <g fill="#35332e" font-family="'Hiragino Mincho ProN','Yu Mincho',serif">
    <text x="172" y="137" font-size="27" letter-spacing="5">中島</text>
    <text x="174" y="294" font-size="13" letter-spacing="2">忽那諸島</text>
    <text x="488" y="470" font-size="20" letter-spacing="4">松山市</text>
    <text x="487" y="496" font-size="12" letter-spacing="1.5">MATSUYAMA</text>
    <text x="43" y="536" font-size="12" letter-spacing="2">SHIKOKU</text>
  </g>
  <circle cx="476" cy="427" r="5" fill="#a36b3e"/>
</svg>
